<?xml version="1.0" encoding="iso-8859-1"?>
<!-- Generator: Adobe Illustrator 19.0.0, SVG Export Plug-In . SVG Version: 6.00 Build 0)  -->
<svg version="1.1" id="Capa_1" xmlns="http://www.w3.org/2000/svg" xmlns:xlink="http://www.w3.org/1999/xlink" x="0px" y="0px"
	 viewBox="0 0 459.755 459.755" style="enable-background:new 0 0 459.755 459.755;" xml:space="preserve">
<g>
	
		<linearGradient id="SVGID_1_" gradientUnits="userSpaceOnUse" x1="-16.7435" y1="577.3231" x2="-16.7435" y2="490.0731" gradientTransform="matrix(5.2245 0 0 -5.2245 317.354 3024.0554)">
		<stop  offset="0" style="stop-color:#00EFD1"/>
		<stop  offset="1" style="stop-color:#00ACEA"/>
	</linearGradient>
	<path style="fill:url(#SVGID_1_);" d="M250.776,0H208.98C136.882,0,78.367,58.514,78.367,130.612v198.531
		c0,72.098,58.514,130.612,130.612,130.612h41.796c72.098,0,130.612-58.514,130.612-130.612V130.612
		C381.388,58.514,322.873,0,250.776,0z M350.041,329.143c0,54.857-44.408,99.265-99.265,99.265H208.98
		c-54.857,0-99.265-44.408-99.265-99.265V130.612c0-54.857,44.408-99.265,99.265-99.265h41.796
		c54.857,0,99.265,44.408,99.265,99.265V329.143z"/>
	
		<linearGradient id="SVGID_2_" gradientUnits="userSpaceOnUse" x1="-16.7435" y1="577.3231" x2="-16.7435" y2="490.0731" gradientTransform="matrix(5.2245 0 0 -5.2245 317.354 3024.0554)">
		<stop  offset="0" style="stop-color:#00EFD1"/>
		<stop  offset="1" style="stop-color:#00ACEA"/>
	</linearGradient>
	<path style="fill:url(#SVGID_2_);" d="M229.878,99.265c-22.988,0-40.751,17.763-40.751,40.751v43.886
		c0,22.988,17.763,40.751,40.751,40.751s40.751-17.763,40.751-40.751v-43.886C270.629,117.029,252.865,99.265,229.878,99.265z
		 M239.282,183.902c0,5.224-4.18,9.404-9.404,9.404s-9.404-4.18-9.404-9.404v-43.886c0-5.224,4.18-9.404,9.404-9.404
		s9.404,4.18,9.404,9.404V183.902z"/>
</g>
<g>
</g>
<g>
</g>
<g>
</g>
<g>
</g>
<g>
</g>
<g>
</g>
<g>
</g>
<g>
</g>
<g>
</g>
<g>
</g>
<g>
</g>
<g>
</g>
<g>
</g>
<g>
</g>
<g>
</g>
</svg>
